<?xml version="1.0" standalone="no"?>
<!DOCTYPE svg PUBLIC "-//W3C//DTD SVG 20010904//EN"
 "http://www.w3.org/TR/2001/REC-SVG-20010904/DTD/svg10.dtd">
<svg version="1.0" xmlns="http://www.w3.org/2000/svg"
 width="80.000000pt" height="80.000000pt" viewBox="0 0 80.000000 80.000000"
 preserveAspectRatio="xMidYMid meet">
<metadata>
Created by potrace 1.14, written by Peter Selinger 2001-2017
</metadata>
<g transform="translate(0.000000,80.000000) scale(0.100000,-0.100000)"
fill="#000000" stroke="none">
<path d="M34 633 c1 -36 9 -69 20 -86 12 -17 18 -44 18 -73 -1 -41 2 -47 33
-65 48 -29 90 -116 89 -186 -1 -48 1 -53 20 -53 12 0 27 5 34 12 9 9 12 5 12
-20 0 -27 4 -32 24 -32 13 0 26 6 29 14 7 17 67 36 113 36 17 0 53 -11 80 -25
51 -26 74 -31 74 -17 0 13 68 42 97 42 43 0 102 32 103 56 0 18 -18 27 -122
61 -186 62 -218 78 -218 107 0 27 -16 36 -65 36 -28 0 -40 8 -72 47 -65 80
-214 203 -245 203 -26 0 -27 -1 -24 -57z"/>
</g>
</svg>
